<svg width="34" height="38" viewBox="0 0 34 38" fill="none" xmlns="http://www.w3.org/2000/svg">
<g filter="url(#filter0_d)">
<path d="M26.8438 3.75H21.6875V2.8125C21.6875 1.25918 20.4283 0 18.875 0H15.125C13.5717 0 12.3125 1.25918 12.3125 2.8125V3.75H7.15625C5.86186 3.75 4.8125 4.79936 4.8125 6.09375V7.96875C4.8125 8.48654 5.23221 8.90625 5.75 8.90625H28.25C28.7678 8.90625 29.1875 8.48654 29.1875 7.96875V6.09375C29.1875 4.79936 28.1381 3.75 26.8438 3.75ZM14.1875 2.8125C14.1875 2.2957 14.6082 1.875 15.125 1.875H18.875C19.3918 1.875 19.8125 2.2957 19.8125 2.8125V3.75H14.1875V2.8125Z" fill="white"/>
<path d="M6.59154 10.7812C6.42426 10.7812 6.29095 10.9211 6.29892 11.0882L7.07236 27.3211C7.14385 28.8234 8.37783 30 9.88134 30H24.1185C25.622 30 26.856 28.8234 26.9274 27.3211L27.7009 11.0882C27.7088 10.9211 27.5755 10.7812 27.4083 10.7812H6.59154ZM20.7499 13.125C20.7499 12.607 21.1694 12.1875 21.6874 12.1875C22.2054 12.1875 22.6249 12.607 22.6249 13.125V25.3125C22.6249 25.8305 22.2054 26.25 21.6874 26.25C21.1694 26.25 20.7499 25.8305 20.7499 25.3125V13.125ZM16.0624 13.125C16.0624 12.607 16.4819 12.1875 16.9999 12.1875C17.5179 12.1875 17.9374 12.607 17.9374 13.125V25.3125C17.9374 25.8305 17.5179 26.25 16.9999 26.25C16.4819 26.25 16.0624 25.8305 16.0624 25.3125V13.125ZM11.3749 13.125C11.3749 12.607 11.7944 12.1875 12.3124 12.1875C12.8304 12.1875 13.2499 12.607 13.2499 13.125V25.3125C13.2499 25.8305 12.8304 26.25 12.3124 26.25C11.7944 26.25 11.3749 25.8305 11.3749 25.3125V13.125Z" fill="white"/>
</g>
<defs>
<filter id="filter0_d" x="-2" y="0" width="38" height="38" filterUnits="userSpaceOnUse" color-interpolation-filters="sRGB">
<feFlood flood-opacity="0" result="BackgroundImageFix"/>
<feColorMatrix in="SourceAlpha" type="matrix" values="0 0 0 0 0 0 0 0 0 0 0 0 0 0 0 0 0 0 127 0" result="hardAlpha"/>
<feOffset dy="4"/>
<feGaussianBlur stdDeviation="2"/>
<feColorMatrix type="matrix" values="0 0 0 0 0 0 0 0 0 0 0 0 0 0 0 0 0 0 0.25 0"/>
<feBlend mode="normal" in2="BackgroundImageFix" result="effect1_dropShadow"/>
<feBlend mode="normal" in="SourceGraphic" in2="effect1_dropShadow" result="shape"/>
</filter>
</defs>
</svg>
